<svg xmlns="http://www.w3.org/2000/svg" width="227" height="156" viewBox="0 0 227 156" fill="none">
  <path d="M96.0447 101.058L13.1376 150.111C12.1087 150.723 10.9731 151.134 9.80001 151.319C8.62691 151.503 7.44077 151.456 6.31365 151.182C5.18652 150.908 4.14195 150.411 3.24342 149.723C2.34488 149.034 1.61113 148.168 1.08677 147.177C-0.350376 144.468 -0.362163 141.464 1.05143 138.165C2.1823 135.48 20.8652 90.5026 57.1003 3.23458C57.4862 2.28743 58.1432 1.47528 58.9888 0.899935C59.8343 0.324588 60.8309 0.0116399 61.8536 0.000318422C62.8763 -0.0110031 63.8796 0.279805 64.7377 0.836292C65.5958 1.39278 66.2705 2.19018 66.6773 3.12855L101.734 82.9633C102.3 84.2355 103.195 84.53 104.42 83.8468L136.721 65.1869C137.312 64.845 137.967 64.6284 138.645 64.5505C139.323 64.4726 140.008 64.5353 140.659 64.7344C141.31 64.9336 141.911 65.265 142.425 65.7078C142.94 66.1506 143.356 66.6952 143.647 67.3073L150.574 81.6203C150.633 81.7416 150.717 81.8495 150.82 81.9372C150.923 82.0249 151.042 82.0907 151.171 82.1304C151.3 82.1701 151.436 82.183 151.571 82.1682C151.705 82.1534 151.835 82.1113 151.952 82.0444L180.542 65.5403C181.102 65.2152 181.723 65.0099 182.366 64.9375C183.01 64.8651 183.662 64.9271 184.283 65.1195C184.903 65.3119 185.478 65.6307 185.972 66.0558C186.465 66.4809 186.866 67.0032 187.151 67.59L226.272 148.52C227.803 151.725 226.92 153.975 223.621 155.27L222.561 155.694C221.554 156.097 220.432 156.102 219.421 155.708C218.411 155.315 217.588 154.552 217.119 153.574L181.143 79.1111C180.742 78.263 180.13 78.0745 179.305 78.5457L157.43 91.1623C156.797 91.5243 156.328 92.117 156.118 92.8197C155.908 93.5224 155.972 94.2821 156.299 94.9438L181.638 147.425C183.122 150.488 182.498 153.044 179.765 155.094C177.88 156.484 175.63 156.013 173.015 153.68C172.549 153.26 172.176 152.755 171.919 152.196L137.993 79.3232C137.286 77.8624 136.226 77.5326 134.812 78.3336L108.838 93.3534C107.542 94.1074 107.2 95.1558 107.813 96.4988L130.96 149.262C131.259 149.93 131.391 150.66 131.346 151.389C131.3 152.119 131.079 152.827 130.7 153.452C130.321 154.077 129.797 154.601 129.171 154.98C128.546 155.358 127.838 155.579 127.108 155.624L126.013 155.694C123.68 155.859 122.055 154.882 121.136 152.761L98.8012 101.941C98.2122 100.598 97.2934 100.304 96.0447 101.058ZM92.9348 91.3744C93.1866 91.2323 93.3766 91.0017 93.468 90.7275C93.5594 90.4532 93.5457 90.1548 93.4295 89.8901L63.1787 21.011C63.0906 20.7976 62.9411 20.6152 62.7492 20.4869C62.5574 20.3585 62.3317 20.29 62.1009 20.29C61.87 20.29 61.6444 20.3585 61.4525 20.4869C61.2606 20.6152 61.1111 20.7976 61.023 21.011L13.9858 134.525C13.8949 134.75 13.8764 134.998 13.9328 135.234C13.9892 135.469 14.1177 135.682 14.3004 135.841C14.4831 136.001 14.711 136.099 14.9523 136.123C15.1936 136.147 15.4364 136.095 15.6468 135.974L92.9348 91.3744Z" fill="#0153CC"/>
</svg>